HIERARCHY
ROOT hip
{
  OFFSET 0 0 0
  CHANNELS 6 Xposition Yposition Zposition Zrotation Yrotation Xrotation
  JOINT abdomen
  {
    OFFSET 0 20.6881 -0.73152
    CHANNELS 3 Zrotation Xrotation Yrotation
    JOINT chest
    {
      OFFSET 0 11.7043 -0.48768
      CHANNELS 3 Zrotation Xrotation Yrotation
      JOINT neck
      {
        OFFSET 0 22.1894 -2.19456
        CHANNELS 3 Zrotation Xrotation Yrotation
        JOINT head
        {
          OFFSET -0.24384 7.07133 1.2192
          CHANNELS 3 Zrotation Xrotation Yrotation
          JOINT leftEye
          {
            OFFSET 4.14528 8.04674 8.04672
            CHANNELS 3 Zrotation Xrotation Yrotation
            End Site
            {
              OFFSET 1 0 0
            }
          }
          JOINT rightEye
          {
            OFFSET -3.6576 8.04674 8.04672
            CHANNELS 3 Zrotation Xrotation Yrotation
            End Site
            {
              OFFSET 1 0 0
            }
          }
        }
      }
      JOINT rCollar
      {
        OFFSET -2.68224 19.2634 -4.8768
        CHANNELS 3 Zrotation Xrotation Yrotation
        JOINT rShldr
        {
          OFFSET -8.77824 -1.95073 1.46304
          CHANNELS 3 Zrotation Xrotation Yrotation
          JOINT rForeArm
          {
            OFFSET -28.1742 -1.7115 0.48768
            CHANNELS 3 Zrotation Xrotation Yrotation
            JOINT rHand
            {
              OFFSET -22.5879 0.773209 7.07136
              CHANNELS 3 Zrotation Xrotation Yrotation
              JOINT rThumb1
              {
                OFFSET -1.2192 -0.487915 3.41376
                CHANNELS 3 Zrotation Xrotation Yrotation
                JOINT rThumb2
                {
                  OFFSET -3.37035 -0.52449 3.41376
                  CHANNELS 3 Zrotation Xrotation Yrotation
                  End Site
                  {
                    OFFSET -1.78271 -1.18214 1.43049
                  }
                }
              }
              JOINT rIndex1
              {
                OFFSET -7.75947 0.938293 5.60832
                CHANNELS 3 Zrotation Xrotation Yrotation
                JOINT rIndex2
                {
                  OFFSET -2.54057 -0.884171 1.56538
                  CHANNELS 3 Zrotation Xrotation Yrotation
                  End Site
                  {
                    OFFSET -1.62519 -0.234802 1.16502
                  }
                }
              }
              JOINT rMid1
              {
                OFFSET -8.24714 1.18213 3.41376
                CHANNELS 3 Zrotation Xrotation Yrotation
                JOINT rMid2
                {
                  OFFSET -3.10165 -0.590103 1.0647
                  CHANNELS 3 Zrotation Xrotation Yrotation
                  End Site
                  {
                    OFFSET -2.48547 -0.328903 0.83742
                  }
                }
              }
              JOINT rRing1
              {
                OFFSET -8.82822 0.546677 1.51678
                CHANNELS 3 Zrotation Xrotation Yrotation
                JOINT rRing2
                {
                  OFFSET -2.60934 -0.819778 -0.0198488
                  CHANNELS 3 Zrotation Xrotation Yrotation
                  End Site
                  {
                    OFFSET -2.33842 -0.294052 0.168128
                  }
                }
              }
              JOINT rPinky1
              {
                OFFSET -8.27202 -0.0477905 -0.4584
                CHANNELS 3 Zrotation Xrotation Yrotation
                JOINT rPinky2
                {
                  OFFSET -1.82734 -0.647385 -0.700984
                  CHANNELS 3 Zrotation Xrotation Yrotation
                  End Site
                  {
                    OFFSET -1.69225 -0.51767 -0.607171
                  }
                }
              }
            }
          }
        }
      }
      JOINT lCollar
      {
        OFFSET 2.68224 19.2634 -4.8768
        CHANNELS 3 Zrotation Xrotation Yrotation
        JOINT lShldr
        {
          OFFSET 8.77824 -1.95073 1.46304
          CHANNELS 3 Zrotation Xrotation Yrotation
          JOINT lForeArm
          {
            OFFSET 28.1742 -1.7115 0.48768
            CHANNELS 3 Zrotation Xrotation Yrotation
            JOINT lHand
            {
              OFFSET 22.5879 0.773209 7.07136
              CHANNELS 3 Zrotation Xrotation Yrotation
              JOINT lThumb1
              {
                OFFSET 1.2192 -0.487915 3.41376
                CHANNELS 3 Zrotation Xrotation Yrotation
                JOINT lThumb2
                {
                  OFFSET 3.37035 -0.52449 3.41376
                  CHANNELS 3 Zrotation Xrotation Yrotation
                  End Site
                  {
                    OFFSET 1.78271 -1.18214 1.43049
                  }
                }
              }
              JOINT lIndex1
              {
                OFFSET 7.75947 0.938293 5.60832
                CHANNELS 3 Zrotation Xrotation Yrotation
                JOINT lIndex2
                {
                  OFFSET 2.54057 -0.884171 1.56538
                  CHANNELS 3 Zrotation Xrotation Yrotation
                  End Site
                  {
                    OFFSET 1.62519 -0.234802 1.16502
                  }
                }
              }
              JOINT lMid1
              {
                OFFSET 8.24714 1.18213 3.41376
                CHANNELS 3 Zrotation Xrotation Yrotation
                JOINT lMid2
                {
                  OFFSET 3.10165 -0.590103 1.0647
                  CHANNELS 3 Zrotation Xrotation Yrotation
                  End Site
                  {
                    OFFSET 2.48547 -0.328903 0.83742
                  }
                }
              }
              JOINT lRing1
              {
                OFFSET 8.82822 0.546677 1.51678
                CHANNELS 3 Zrotation Xrotation Yrotation
                JOINT lRing2
                {
                  OFFSET 2.60934 -0.819778 -0.0198488
                  CHANNELS 3 Zrotation Xrotation Yrotation
                  End Site
                  {
                    OFFSET 2.33842 -0.294052 0.168128
                  }
                }
              }
              JOINT lPinky1
              {
                OFFSET 8.27202 -0.0477905 -0.4584
                CHANNELS 3 Zrotation Xrotation Yrotation
                JOINT lPinky2
                {
                  OFFSET 1.82734 -0.647385 -0.700984
                  CHANNELS 3 Zrotation Xrotation Yrotation
                  End Site
                  {
                    OFFSET 1.69225 -0.51767 -0.607171
                  }
                }
              }
            }
          }
        }
      }
    }
  }
  JOINT rButtock
  {
    OFFSET -8.77824 4.35084 1.2192
    CHANNELS 3 Zrotation Xrotation Yrotation
    JOINT rThigh
    {
      OFFSET 0 -1.70687 -2.19456
      CHANNELS 3 Zrotation Xrotation Yrotation
      JOINT rShin
      {
        OFFSET 0 -36.8199 0.73152
        CHANNELS 3 Zrotation Xrotation Yrotation
        JOINT rFoot
        {
          OFFSET 0.73152 -45.1104 -5.12064
          CHANNELS 3 Zrotation Xrotation Yrotation
          End Site
          {
            OFFSET -1.1221 -3.69964 12.103
          }
        }
      }
    }
  }
  JOINT lButtock
  {
    OFFSET 8.77824 4.35084 1.2192
    CHANNELS 3 Zrotation Xrotation Yrotation
    JOINT lThigh
    {
      OFFSET 0 -1.70687 -2.19456
      CHANNELS 3 Zrotation Xrotation Yrotation
      JOINT lShin
      {
        OFFSET 0 -36.8199 0.73152
        CHANNELS 3 Zrotation Xrotation Yrotation
        JOINT lFoot
        {
          OFFSET -0.73152 -45.1104 -5.12064
          CHANNELS 3 Zrotation Xrotation Yrotation
          End Site
          {
            OFFSET 1.1221 -3.69964 12.103
          }
        }
      }
    }
  }
}
MOTION
Frames:	4
Frame Time:	0.03333
15.5091 56.1586 -11.0616 -163.3445 32.322642 -174.768559 12.827628 15.932517 -3.054927 1.733271 -9.020191 22.451356 -6.350652 16.165727 -44.067327 22.920048 -9.403844 39.88839 17.341191 -1.110115 -7.270077 11.210107 -0.309419 -3.152043 -1.703276 -26.512674 -10.570837 -120.500346 15.334414 -156.199792 31.066278 49.025042 -101.97026 164.672399 -20.686012 146.938258 -151.999718 5.778305 82.823412 -144.546167 -13.49884 57.729019 -137.950683 -3.159292 114.893978 -155.806322 -35.941517 120.033926 -152.785614 19.817347 142.70541 -7.120644 7.258702 0.018863 -144.279294 -3.398146 -174.768803 15.694841 44.419249 -7.57125 4.874308 -2.558561 -13.715956 -11.94866 41.348927 38.643952 0.757732 -1.647356 -4.788454 -71.470145 23.92146 -6.568901 105.714607 44.30069 -72.417041 -62.523987 -67.996861 -49.468929 -0.286854 3.064946 -0.075451 -18.549148 -36.654355 8.703957 154.598244 -17.916092 -122.388862 -59.352824 -73.16873 -23.044158 85.299294 60.939365 -83.474041 173.035741 -23.059886 -144.171142 134.006518 -4.707505 -172.823789 -14.262768 1.377955 -9.869696 67.102627 -50.546761 77.814332 -28.131833 -62.002373 -13.684402 167.352394 74.416355 8.431375 115.936988 81.912817 127.594797 37.104329 14.787755 -82.057062 51.553443 -35.994248 1.918081 7.262319 -1.358342 10.381889 53.514003 -58.448656 -180.0 80.483178 -32.905184 169.586944 126.435768 78.156885 -49.339329
15.399899999999999 55.9014 -11.458599999999999 -163.215182 32.61048 -174.320684 12.537701 15.612733 -0.0 1.45448 -8.891769 19.317536 -5.939845 27.886707 -118.023177 27.484665 23.796926 107.208713 19.405988 -0.627385 -3.66798 11.965517 -0.204611 -1.95221 -17.287506 -73.359957 -34.372564 -81.696686 -35.775551 -98.257012 178.232782 -1.663878 -133.93473 -12.748014 47.805934 7.484787 84.503373 -45.143198 34.599696 -57.574998 27.298806 -1.169064 -86.772793 37.394356 76.588184 -139.337534 33.954281 119.481052 -166.835603 -38.403958 151.802719 -161.795271 9.831313 148.739099 1.122082 13.839031 1.518326 -158.096164 -1.741412 169.768311 31.620513 38.603695 -6.101777 -40.099768 -44.060687 -12.449822 152.2629 11.765873 -153.108035 59.016933 5.415286 -17.395944 166.728472 -1.92474 149.641497 5.772132 20.191292 -1.396041 -4.053583 -0.537639 0.863208 -41.084474 -63.289802 6.410798 3.16555 0.03652 1.404423 -17.040546 17.58165 -6.702448 -14.173549 -23.776688 3.300524 4.606564 20.75757 -7.608392 132.785871 -4.222335 -173.768343 149.476347 -4.063687 -164.684305 101.086771 -37.500177 110.718893 47.516591 -70.378966 81.534126 -0.688838 0.992949 0.897537 -7.961679 11.490458 -70.995631 -35.798683 18.046405 106.296423 -98.435043 48.105207 1.578823 -97.160214 56.383177 -56.471465 -179.493251 8.972884 180.0 63.218124 -79.46868 -13.548101 -87.132523 -63.403915 174.051288
15.320500000000001 56.0442 -11.825199999999999 -163.780667 31.73052 -174.577129 12.294488 15.162298 -2.761062 1.988217 -8.538156 21.165629 12.050814 23.373256 110.164857 -25.934796 18.361617 -113.9808 15.586829 -0.988451 -7.212678 12.91417 -0.351152 -3.101936 -158.261435 -1.663553 165.117419 -50.360948 -6.146407 11.200907 8.545935 3.981782 -81.170074 159.146363 -33.65497 142.871282 -78.059565 33.894543 43.644396 39.804509 -16.784321 16.405092 -58.857512 39.909643 51.563391 -3.953757 29.047064 -8.817321 -155.311456 14.459313 144.128695 -108.368232 68.402772 91.091333 -113.689056 71.026214 135.358432 -81.659276 -78.054019 -93.970371 -140.992346 23.663318 -129.572024 -27.111103 -21.527847 -51.844279 -13.734621 -70.025676 3.167457 100.756842 -23.454691 121.589986 -177.619431 -12.071226 149.695031 13.458179 39.247268 -4.214872 -4.684254 -0.641563 0.535486 134.096483 -13.010392 -106.091888 -39.168959 -65.840219 -2.724046 -71.573817 -78.640954 -4.513985 160.682203 -24.950065 -145.090421 14.526281 40.72658 -10.143271 14.686651 55.222467 -43.998756 -27.280914 51.040807 14.977034 133.88886 12.128148 139.866754 169.829313 59.779739 106.315525 -1.011678 1.151825 1.321059 -8.274582 8.518703 -135.52716 -46.946708 -26.290154 -101.952543 -109.153211 2.052427 -157.813385 -1.809216 -3.202028 2.222832 66.1221 -51.513503 157.173384 75.791405 -13.543372 -92.315435 97.144544 -15.589856 -16.921947
15.307799999999999 56.33240000000001 -12.1699 -164.345556 31.147891 -174.953605 11.817474 14.897814 -0.0 2.085514 -8.282659 17.604438 -10.432597 22.113791 -79.788997 31.047719 8.357415 73.185179 9.419621 -0.769285 -9.31697 12.978891 -0.384678 -3.380847 -26.809021 57.800981 25.011106 -114.639054 -4.303735 128.632173 -102.399829 -23.860665 -137.013654 20.743998 -40.656964 15.501193 175.409926 -21.162962 83.4973 -162.748565 8.833466 71.180961 -125.07683 14.371735 107.95231 19.097529 2.550365 -12.475771 2.520399 -17.436047 -8.925449 92.459266 -70.086506 52.636618 -143.771017 -9.821233 -172.334615 -147.549084 -22.997987 -170.120321 81.442578 70.108139 -33.562751 -134.693183 -37.657619 -95.920837 -7.952461 -44.09849 3.29327 -58.126424 -1.844628 33.580078 14.80287 46.971348 -44.940301 5.446368 18.860447 -1.27982 -176.051281 -23.788684 -87.944969 30.015284 -18.311971 -5.571938 146.957806 3.511185 -116.678575 170.7957 11.576726 -115.050393 -4.607684 -0.137238 0.165157 156.234038 6.577198 -139.18503 -13.335632 -0.292732 -8.575778 3.363149 -24.959681 20.29021 141.327877 39.514419 147.421369 116.990666 -0.845876 106.507212 174.770856 74.964599 2.609908 118.989636 80.410466 60.499631 10.00354 40.452005 39.098185 -27.599003 -4.339364 -71.233201 -1.629814 -3.29314 1.999405 64.082822 -49.355444 69.760179 52.578601 65.678586 -40.683362 -101.197485 -8.557172 6.858422
